<?xml version="1.0" encoding="iso-8859-1"?>
<!-- Uploaded to: SVG Repo, www.svgrepo.com, Generator: SVG Repo Mixer Tools -->
<svg version="1.1" id="Layer_1" xmlns="http://www.w3.org/2000/svg" xmlns:xlink="http://www.w3.org/1999/xlink" 
	 viewBox="0 0 512 512" xml:space="preserve">
<rect x="77.458" y="190.879" style="fill:#CFF09E;" width="357.089" height="90.724"/>
<g>
	<path style="fill:#507C5C;" d="M434.544,176.006H77.455c-8.218,0-14.879,6.661-14.879,14.879v90.724
		c0,8.217,6.661,14.879,14.879,14.879h357.089c8.218,0,14.879-6.661,14.879-14.879v-90.724
		C449.423,182.667,442.762,176.006,434.544,176.006z M419.666,266.73H395.86v-12.578c0-8.218-6.661-14.879-14.879-14.879
		s-14.879,6.661-14.879,14.879v12.578h-32.733v-27.466c0-8.218-6.661-14.879-14.879-14.879s-14.879,6.661-14.879,14.879v27.466
		h-32.733v-12.578c0-8.217-6.661-14.879-14.879-14.879s-14.879,6.661-14.879,14.879v12.578h-32.733v-27.466
		c0-8.218-6.661-14.879-14.879-14.879s-14.879,6.661-14.879,14.879v27.466h-32.733v-12.578c0-8.217-6.661-14.879-14.879-14.879
		s-14.879,6.661-14.879,14.879v12.578H92.334v-60.967h327.331V266.73z"/>
	<path style="fill:#507C5C;" d="M113.164,420.78c-27.895,0-50.588-22.693-50.588-50.588c0-27.895,22.693-50.588,50.588-50.588
		s50.588,22.693,50.588,50.588c0,8.217-6.661,14.879-14.879,14.879s-14.879-6.661-14.879-14.879c0-11.486-9.344-20.83-20.83-20.83
		s-20.83,9.344-20.83,20.83s9.344,20.83,20.83,20.83c8.218,0,14.879,6.661,14.879,14.879
		C128.043,414.119,121.382,420.78,113.164,420.78z"/>
	<path style="fill:#507C5C;" d="M398.835,420.78c-27.895,0-50.588-22.693-50.588-50.588c0-27.895,22.693-50.588,50.588-50.588
		c27.895,0,50.588,22.693,50.588,50.588C449.423,398.087,426.73,420.78,398.835,420.78z M398.835,349.362
		c-11.486,0-20.83,9.344-20.83,20.83s9.344,20.83,20.83,20.83s20.83-9.344,20.83-20.83S410.322,349.362,398.835,349.362z"/>
	<path style="fill:#507C5C;" d="M314.022,355.314h-85.188v-4.452c0-8.217-6.661-14.879-14.879-14.879
		c-8.217,0-14.879,6.661-14.879,14.879v4.452h-1.1c-8.218,0-14.879,6.661-14.879,14.879s6.661,14.879,14.879,14.879h1.1v5.211
		c0,8.218,6.661,14.879,14.879,14.879c8.218,0,14.879-6.661,14.879-14.879v-5.211h85.188c8.217,0,14.879-6.661,14.879-14.879
		S322.24,355.314,314.022,355.314z"/>
	<path style="fill:#507C5C;" d="M442.69,10.125c-2.628-7.786-11.07-11.965-18.854-9.341L80.964,116.491H17.941
		c-8.218,0-14.879,6.661-14.879,14.879v333.325c0,8.218,6.661,14.879,14.879,14.879h39.42v17.548
		c0,8.218,6.661,14.879,14.879,14.879s14.879-6.661,14.879-14.879v-17.548h258.174c8.217,0,14.879-6.661,14.879-14.879
		s-6.661-14.879-14.879-14.879H32.819V146.249h50.475c0.037,0,0.074,0.004,0.112,0.004c0.47,0,0.942-0.03,1.416-0.076
		c0.119-0.012,0.235-0.03,0.353-0.043c0.321-0.039,0.644-0.086,0.966-0.147c0.18-0.034,0.359-0.07,0.537-0.11
		c0.247-0.057,0.494-0.121,0.739-0.19c0.205-0.058,0.411-0.113,0.613-0.179c0.045-0.015,0.089-0.024,0.135-0.039L433.351,28.981
		C441.137,26.352,445.318,17.911,442.69,10.125z"/>
	<path style="fill:#507C5C;" d="M494.059,116.491H265.671c-8.217,0-14.879,6.661-14.879,14.879s6.661,14.879,14.879,14.879H479.18
		v303.567h-39.42c-8.218,0-14.879,6.661-14.879,14.879v32.427c0,8.218,6.661,14.879,14.879,14.879s14.879-6.661,14.879-14.879
		v-17.548h39.42c8.217,0,14.879-6.661,14.879-14.879V131.37C508.938,123.152,502.277,116.491,494.059,116.491z"/>
</g>
</svg>